<mxfile host="Electron" modified="2023-07-07T01:20:54.700Z" agent="Mozilla/5.0 (Windows NT 10.0; Win64; x64) AppleWebKit/537.36 (KHTML, like Gecko) draw.io/21.4.0 Chrome/112.0.5615.204 Electron/24.5.1 Safari/537.36" etag="UQuFdB8mcjK4ZQ9JU3wW" version="21.4.0" type="device">
  <diagram id="C5RBs43oDa-KdzZeNtuy" name="Page-1">
    <mxGraphModel dx="2261" dy="844" grid="1" gridSize="10" guides="1" tooltips="1" connect="1" arrows="1" fold="1" page="1" pageScale="1" pageWidth="827" pageHeight="1169" background="#333333" math="0" shadow="0">
      <root>
        <mxCell id="WIyWlLk6GJQsqaUBKTNV-0" />
        <mxCell id="WIyWlLk6GJQsqaUBKTNV-1" parent="WIyWlLk6GJQsqaUBKTNV-0" />
        <mxCell id="Fhp1EmP1vpu9yhbah9ed-0" value="Programa&lt;br&gt;Principal" style="shape=hexagon;perimeter=hexagonPerimeter2;whiteSpace=wrap;html=1;fixedSize=1;" parent="WIyWlLk6GJQsqaUBKTNV-1" vertex="1">
          <mxGeometry x="360" y="100" width="120" height="80" as="geometry" />
        </mxCell>
        <mxCell id="Fhp1EmP1vpu9yhbah9ed-1" value="MiniDamas" style="text;html=1;align=center;verticalAlign=middle;resizable=0;points=[];autosize=1;strokeColor=none;fillColor=none;fontSize=21;" parent="WIyWlLk6GJQsqaUBKTNV-1" vertex="1">
          <mxGeometry x="355" y="50" width="130" height="40" as="geometry" />
        </mxCell>
        <mxCell id="Fhp1EmP1vpu9yhbah9ed-2" style="edgeStyle=orthogonalEdgeStyle;rounded=0;orthogonalLoop=1;jettySize=auto;html=1;exitX=0.5;exitY=1;exitDx=0;exitDy=0;" parent="WIyWlLk6GJQsqaUBKTNV-1" source="Fhp1EmP1vpu9yhbah9ed-0" target="Fhp1EmP1vpu9yhbah9ed-0" edge="1">
          <mxGeometry relative="1" as="geometry" />
        </mxCell>
        <mxCell id="Fhp1EmP1vpu9yhbah9ed-16" style="edgeStyle=orthogonalEdgeStyle;rounded=0;orthogonalLoop=1;jettySize=auto;html=1;entryX=0.5;entryY=0;entryDx=0;entryDy=0;" parent="WIyWlLk6GJQsqaUBKTNV-1" source="Fhp1EmP1vpu9yhbah9ed-0" target="Fhp1EmP1vpu9yhbah9ed-14" edge="1">
          <mxGeometry relative="1" as="geometry">
            <mxPoint x="420" y="170" as="sourcePoint" />
          </mxGeometry>
        </mxCell>
        <mxCell id="Fhp1EmP1vpu9yhbah9ed-17" style="edgeStyle=orthogonalEdgeStyle;rounded=0;orthogonalLoop=1;jettySize=auto;html=1;" parent="WIyWlLk6GJQsqaUBKTNV-1" source="Fhp1EmP1vpu9yhbah9ed-0" target="Fhp1EmP1vpu9yhbah9ed-15" edge="1">
          <mxGeometry relative="1" as="geometry">
            <Array as="points">
              <mxPoint x="460" y="190" />
              <mxPoint x="660" y="190" />
            </Array>
            <mxPoint x="460" y="170" as="sourcePoint" />
          </mxGeometry>
        </mxCell>
        <mxCell id="Fhp1EmP1vpu9yhbah9ed-18" style="edgeStyle=orthogonalEdgeStyle;rounded=0;orthogonalLoop=1;jettySize=auto;html=1;entryX=0.5;entryY=0;entryDx=0;entryDy=0;" parent="WIyWlLk6GJQsqaUBKTNV-1" source="Fhp1EmP1vpu9yhbah9ed-0" target="Fhp1EmP1vpu9yhbah9ed-12" edge="1">
          <mxGeometry relative="1" as="geometry">
            <Array as="points">
              <mxPoint x="380" y="190" />
              <mxPoint x="180" y="190" />
            </Array>
            <mxPoint x="380" y="170" as="sourcePoint" />
          </mxGeometry>
        </mxCell>
        <mxCell id="vHnxwdTPo78ipsx4aBbw-1" style="edgeStyle=orthogonalEdgeStyle;rounded=0;orthogonalLoop=1;jettySize=auto;html=1;entryX=1;entryY=0.5;entryDx=0;entryDy=0;" parent="WIyWlLk6GJQsqaUBKTNV-1" source="Fhp1EmP1vpu9yhbah9ed-0" target="vHnxwdTPo78ipsx4aBbw-0" edge="1">
          <mxGeometry relative="1" as="geometry">
            <mxPoint x="360" y="140" as="sourcePoint" />
          </mxGeometry>
        </mxCell>
        <mxCell id="5Q2nQCjbKrTkZMVwxG4L-4" style="edgeStyle=orthogonalEdgeStyle;rounded=0;orthogonalLoop=1;jettySize=auto;html=1;entryX=0.5;entryY=0;entryDx=0;entryDy=0;" parent="WIyWlLk6GJQsqaUBKTNV-1" source="Fhp1EmP1vpu9yhbah9ed-12" target="5Q2nQCjbKrTkZMVwxG4L-0" edge="1">
          <mxGeometry relative="1" as="geometry">
            <Array as="points">
              <mxPoint x="110" y="270" />
            </Array>
          </mxGeometry>
        </mxCell>
        <mxCell id="5Q2nQCjbKrTkZMVwxG4L-5" style="edgeStyle=orthogonalEdgeStyle;rounded=0;orthogonalLoop=1;jettySize=auto;html=1;" parent="WIyWlLk6GJQsqaUBKTNV-1" source="Fhp1EmP1vpu9yhbah9ed-12" target="5Q2nQCjbKrTkZMVwxG4L-1" edge="1">
          <mxGeometry relative="1" as="geometry">
            <Array as="points">
              <mxPoint x="250" y="270" />
            </Array>
          </mxGeometry>
        </mxCell>
        <mxCell id="Fhp1EmP1vpu9yhbah9ed-12" value="Inicializar Tablero" style="whiteSpace=wrap;html=1;" parent="WIyWlLk6GJQsqaUBKTNV-1" vertex="1">
          <mxGeometry x="120" y="240" width="120" height="60" as="geometry" />
        </mxCell>
        <mxCell id="vHnxwdTPo78ipsx4aBbw-6" style="edgeStyle=orthogonalEdgeStyle;rounded=0;orthogonalLoop=1;jettySize=auto;html=1;exitX=0.5;exitY=1;exitDx=0;exitDy=0;entryX=0.5;entryY=0;entryDx=0;entryDy=0;" parent="WIyWlLk6GJQsqaUBKTNV-1" source="Fhp1EmP1vpu9yhbah9ed-14" target="vHnxwdTPo78ipsx4aBbw-5" edge="1">
          <mxGeometry relative="1" as="geometry">
            <Array as="points">
              <mxPoint x="425" y="350" />
            </Array>
          </mxGeometry>
        </mxCell>
        <mxCell id="Fhp1EmP1vpu9yhbah9ed-14" value="Jugando" style="whiteSpace=wrap;html=1;" parent="WIyWlLk6GJQsqaUBKTNV-1" vertex="1">
          <mxGeometry x="360" y="290" width="120" height="60" as="geometry" />
        </mxCell>
        <mxCell id="Fhp1EmP1vpu9yhbah9ed-15" value="Pantalla Fin" style="whiteSpace=wrap;html=1;" parent="WIyWlLk6GJQsqaUBKTNV-1" vertex="1">
          <mxGeometry x="600" y="240" width="120" height="60" as="geometry" />
        </mxCell>
        <mxCell id="Fhp1EmP1vpu9yhbah9ed-23" value="" style="endArrow=classic;startArrow=classic;html=1;rounded=0;" parent="WIyWlLk6GJQsqaUBKTNV-1" edge="1">
          <mxGeometry width="50" height="50" relative="1" as="geometry">
            <mxPoint x="240" y="180" as="sourcePoint" />
            <mxPoint x="280" y="180" as="targetPoint" />
            <Array as="points">
              <mxPoint x="260" y="180" />
            </Array>
          </mxGeometry>
        </mxCell>
        <mxCell id="Fhp1EmP1vpu9yhbah9ed-26" value="Mat" style="text;html=1;align=center;verticalAlign=middle;resizable=0;points=[];autosize=1;strokeColor=none;fillColor=none;" parent="WIyWlLk6GJQsqaUBKTNV-1" vertex="1">
          <mxGeometry x="240" y="150" width="40" height="30" as="geometry" />
        </mxCell>
        <mxCell id="Fhp1EmP1vpu9yhbah9ed-31" value="" style="endArrow=classic;startArrow=classic;html=1;rounded=0;" parent="WIyWlLk6GJQsqaUBKTNV-1" edge="1">
          <mxGeometry width="50" height="50" relative="1" as="geometry">
            <mxPoint x="413" y="210" as="sourcePoint" />
            <mxPoint x="413" y="250" as="targetPoint" />
            <Array as="points">
              <mxPoint x="413" y="230" />
            </Array>
          </mxGeometry>
        </mxCell>
        <mxCell id="Fhp1EmP1vpu9yhbah9ed-32" value="Mat" style="text;html=1;align=center;verticalAlign=middle;resizable=0;points=[];autosize=1;strokeColor=none;fillColor=none;" parent="WIyWlLk6GJQsqaUBKTNV-1" vertex="1">
          <mxGeometry x="360" y="215" width="40" height="30" as="geometry" />
        </mxCell>
        <mxCell id="5Q2nQCjbKrTkZMVwxG4L-0" value="InicMatriz" style="whiteSpace=wrap;html=1;" parent="WIyWlLk6GJQsqaUBKTNV-1" vertex="1">
          <mxGeometry x="80" y="380" width="70" height="60" as="geometry" />
        </mxCell>
        <mxCell id="D3IPwqvcWMvaMyJVCony-1" style="edgeStyle=orthogonalEdgeStyle;rounded=0;orthogonalLoop=1;jettySize=auto;html=1;" edge="1" parent="WIyWlLk6GJQsqaUBKTNV-1" source="5Q2nQCjbKrTkZMVwxG4L-1" target="D3IPwqvcWMvaMyJVCony-0">
          <mxGeometry relative="1" as="geometry">
            <Array as="points">
              <mxPoint x="250" y="470" />
            </Array>
          </mxGeometry>
        </mxCell>
        <mxCell id="5Q2nQCjbKrTkZMVwxG4L-1" value="CargarFichas" style="whiteSpace=wrap;html=1;" parent="WIyWlLk6GJQsqaUBKTNV-1" vertex="1">
          <mxGeometry x="210" y="380" width="80" height="60" as="geometry" />
        </mxCell>
        <mxCell id="5Q2nQCjbKrTkZMVwxG4L-6" value="Mat" style="text;html=1;align=center;verticalAlign=middle;resizable=0;points=[];autosize=1;strokeColor=none;fillColor=none;" parent="WIyWlLk6GJQsqaUBKTNV-1" vertex="1">
          <mxGeometry x="60" y="330" width="40" height="30" as="geometry" />
        </mxCell>
        <mxCell id="5Q2nQCjbKrTkZMVwxG4L-7" value="Mat" style="text;html=1;align=center;verticalAlign=middle;resizable=0;points=[];autosize=1;strokeColor=none;fillColor=none;" parent="WIyWlLk6GJQsqaUBKTNV-1" vertex="1">
          <mxGeometry x="200" y="325" width="40" height="30" as="geometry" />
        </mxCell>
        <mxCell id="5Q2nQCjbKrTkZMVwxG4L-8" value="" style="endArrow=classic;startArrow=classic;html=1;rounded=0;" parent="WIyWlLk6GJQsqaUBKTNV-1" edge="1">
          <mxGeometry width="50" height="50" relative="1" as="geometry">
            <mxPoint x="239.30999999999995" y="320" as="sourcePoint" />
            <mxPoint x="239.30999999999995" y="360" as="targetPoint" />
            <Array as="points">
              <mxPoint x="239.30999999999995" y="340" />
            </Array>
          </mxGeometry>
        </mxCell>
        <mxCell id="5Q2nQCjbKrTkZMVwxG4L-9" value="" style="endArrow=classic;startArrow=classic;html=1;rounded=0;" parent="WIyWlLk6GJQsqaUBKTNV-1" edge="1">
          <mxGeometry width="50" height="50" relative="1" as="geometry">
            <mxPoint x="99.99999999999997" y="320" as="sourcePoint" />
            <mxPoint x="99.99999999999997" y="360" as="targetPoint" />
            <Array as="points">
              <mxPoint x="99.99999999999997" y="340" />
            </Array>
          </mxGeometry>
        </mxCell>
        <mxCell id="5Q2nQCjbKrTkZMVwxG4L-10" value="Color" style="text;strokeColor=none;align=center;fillColor=none;html=1;verticalAlign=middle;whiteSpace=wrap;rounded=0;" parent="WIyWlLk6GJQsqaUBKTNV-1" vertex="1">
          <mxGeometry x="270" y="330" width="30" height="20" as="geometry" />
        </mxCell>
        <mxCell id="5Q2nQCjbKrTkZMVwxG4L-11" value="Cant fichas" style="text;strokeColor=none;align=center;fillColor=none;html=1;verticalAlign=middle;whiteSpace=wrap;rounded=0;" parent="WIyWlLk6GJQsqaUBKTNV-1" vertex="1">
          <mxGeometry x="260" y="270" width="60" height="30" as="geometry" />
        </mxCell>
        <mxCell id="vHnxwdTPo78ipsx4aBbw-0" value="Inicio" style="whiteSpace=wrap;html=1;" parent="WIyWlLk6GJQsqaUBKTNV-1" vertex="1">
          <mxGeometry x="-90" y="140" width="120" height="60" as="geometry" />
        </mxCell>
        <mxCell id="vHnxwdTPo78ipsx4aBbw-8" style="edgeStyle=orthogonalEdgeStyle;rounded=0;orthogonalLoop=1;jettySize=auto;html=1;" parent="WIyWlLk6GJQsqaUBKTNV-1" source="vHnxwdTPo78ipsx4aBbw-5" target="vHnxwdTPo78ipsx4aBbw-7" edge="1">
          <mxGeometry relative="1" as="geometry">
            <Array as="points">
              <mxPoint x="385" y="500" />
              <mxPoint x="95" y="500" />
            </Array>
          </mxGeometry>
        </mxCell>
        <mxCell id="vHnxwdTPo78ipsx4aBbw-17" style="edgeStyle=orthogonalEdgeStyle;rounded=0;orthogonalLoop=1;jettySize=auto;html=1;" parent="WIyWlLk6GJQsqaUBKTNV-1" source="vHnxwdTPo78ipsx4aBbw-5" target="vHnxwdTPo78ipsx4aBbw-18" edge="1">
          <mxGeometry relative="1" as="geometry">
            <mxPoint x="305" y="720" as="targetPoint" />
            <Array as="points">
              <mxPoint x="395" y="520" />
              <mxPoint x="235" y="520" />
            </Array>
          </mxGeometry>
        </mxCell>
        <mxCell id="vHnxwdTPo78ipsx4aBbw-52" style="edgeStyle=orthogonalEdgeStyle;rounded=0;orthogonalLoop=1;jettySize=auto;html=1;" parent="WIyWlLk6GJQsqaUBKTNV-1" target="vHnxwdTPo78ipsx4aBbw-39" edge="1">
          <mxGeometry relative="1" as="geometry">
            <mxPoint x="405" y="450" as="sourcePoint" />
            <Array as="points">
              <mxPoint x="405" y="510" />
              <mxPoint x="405" y="510" />
            </Array>
          </mxGeometry>
        </mxCell>
        <mxCell id="vHnxwdTPo78ipsx4aBbw-77" style="edgeStyle=orthogonalEdgeStyle;rounded=0;orthogonalLoop=1;jettySize=auto;html=1;" parent="WIyWlLk6GJQsqaUBKTNV-1" source="vHnxwdTPo78ipsx4aBbw-5" target="vHnxwdTPo78ipsx4aBbw-64" edge="1">
          <mxGeometry relative="1" as="geometry">
            <Array as="points">
              <mxPoint x="425" y="510" />
              <mxPoint x="705" y="510" />
            </Array>
          </mxGeometry>
        </mxCell>
        <mxCell id="vHnxwdTPo78ipsx4aBbw-79" style="edgeStyle=orthogonalEdgeStyle;rounded=0;orthogonalLoop=1;jettySize=auto;html=1;" parent="WIyWlLk6GJQsqaUBKTNV-1" source="vHnxwdTPo78ipsx4aBbw-5" target="vHnxwdTPo78ipsx4aBbw-78" edge="1">
          <mxGeometry relative="1" as="geometry">
            <Array as="points">
              <mxPoint x="415" y="520" />
              <mxPoint x="550" y="520" />
            </Array>
          </mxGeometry>
        </mxCell>
        <mxCell id="vHnxwdTPo78ipsx4aBbw-102" style="edgeStyle=orthogonalEdgeStyle;rounded=0;orthogonalLoop=1;jettySize=auto;html=1;" parent="WIyWlLk6GJQsqaUBKTNV-1" source="vHnxwdTPo78ipsx4aBbw-5" target="vHnxwdTPo78ipsx4aBbw-58" edge="1">
          <mxGeometry relative="1" as="geometry">
            <mxPoint x="845" y="470" as="targetPoint" />
            <Array as="points">
              <mxPoint x="775" y="460" />
              <mxPoint x="775" y="460" />
            </Array>
          </mxGeometry>
        </mxCell>
        <mxCell id="vHnxwdTPo78ipsx4aBbw-109" style="edgeStyle=orthogonalEdgeStyle;rounded=0;orthogonalLoop=1;jettySize=auto;html=1;" parent="WIyWlLk6GJQsqaUBKTNV-1" source="vHnxwdTPo78ipsx4aBbw-5" target="vHnxwdTPo78ipsx4aBbw-99" edge="1">
          <mxGeometry relative="1" as="geometry">
            <Array as="points">
              <mxPoint x="465" y="420" />
              <mxPoint x="1425" y="420" />
            </Array>
          </mxGeometry>
        </mxCell>
        <mxCell id="vHnxwdTPo78ipsx4aBbw-128" style="edgeStyle=orthogonalEdgeStyle;rounded=0;orthogonalLoop=1;jettySize=auto;html=1;" parent="WIyWlLk6GJQsqaUBKTNV-1" source="vHnxwdTPo78ipsx4aBbw-5" target="vHnxwdTPo78ipsx4aBbw-100" edge="1">
          <mxGeometry relative="1" as="geometry">
            <Array as="points">
              <mxPoint x="1095" y="470" />
              <mxPoint x="1095" y="630" />
            </Array>
          </mxGeometry>
        </mxCell>
        <mxCell id="vHnxwdTPo78ipsx4aBbw-142" style="edgeStyle=orthogonalEdgeStyle;rounded=0;orthogonalLoop=1;jettySize=auto;html=1;" parent="WIyWlLk6GJQsqaUBKTNV-1" source="vHnxwdTPo78ipsx4aBbw-5" target="vHnxwdTPo78ipsx4aBbw-135" edge="1">
          <mxGeometry relative="1" as="geometry">
            <Array as="points">
              <mxPoint x="435" y="500" />
              <mxPoint x="855" y="500" />
            </Array>
          </mxGeometry>
        </mxCell>
        <mxCell id="vHnxwdTPo78ipsx4aBbw-158" style="edgeStyle=orthogonalEdgeStyle;rounded=0;orthogonalLoop=1;jettySize=auto;html=1;" parent="WIyWlLk6GJQsqaUBKTNV-1" source="vHnxwdTPo78ipsx4aBbw-5" target="vHnxwdTPo78ipsx4aBbw-148" edge="1">
          <mxGeometry relative="1" as="geometry">
            <Array as="points">
              <mxPoint x="1010" y="490" />
            </Array>
          </mxGeometry>
        </mxCell>
        <mxCell id="vHnxwdTPo78ipsx4aBbw-5" value="Turno" style="rounded=1;whiteSpace=wrap;html=1;" parent="WIyWlLk6GJQsqaUBKTNV-1" vertex="1">
          <mxGeometry x="379.5" y="450" width="91" height="40" as="geometry" />
        </mxCell>
        <mxCell id="vHnxwdTPo78ipsx4aBbw-88" style="edgeStyle=orthogonalEdgeStyle;rounded=0;orthogonalLoop=1;jettySize=auto;html=1;" parent="WIyWlLk6GJQsqaUBKTNV-1" source="vHnxwdTPo78ipsx4aBbw-7" target="vHnxwdTPo78ipsx4aBbw-87" edge="1">
          <mxGeometry relative="1" as="geometry">
            <Array as="points">
              <mxPoint x="-145" y="670" />
            </Array>
          </mxGeometry>
        </mxCell>
        <mxCell id="vHnxwdTPo78ipsx4aBbw-91" style="edgeStyle=orthogonalEdgeStyle;rounded=0;orthogonalLoop=1;jettySize=auto;html=1;" parent="WIyWlLk6GJQsqaUBKTNV-1" source="vHnxwdTPo78ipsx4aBbw-7" target="vHnxwdTPo78ipsx4aBbw-90" edge="1">
          <mxGeometry relative="1" as="geometry">
            <Array as="points">
              <mxPoint x="45" y="770" />
              <mxPoint x="45" y="770" />
            </Array>
          </mxGeometry>
        </mxCell>
        <mxCell id="vHnxwdTPo78ipsx4aBbw-194" style="edgeStyle=orthogonalEdgeStyle;rounded=0;orthogonalLoop=1;jettySize=auto;html=1;" parent="WIyWlLk6GJQsqaUBKTNV-1" source="vHnxwdTPo78ipsx4aBbw-7" target="vHnxwdTPo78ipsx4aBbw-192" edge="1">
          <mxGeometry relative="1" as="geometry">
            <Array as="points">
              <mxPoint x="115" y="810" />
              <mxPoint x="115" y="810" />
            </Array>
          </mxGeometry>
        </mxCell>
        <mxCell id="vHnxwdTPo78ipsx4aBbw-7" value="Pedir Posiciones" style="whiteSpace=wrap;html=1;" parent="WIyWlLk6GJQsqaUBKTNV-1" vertex="1">
          <mxGeometry x="35" y="640" width="120" height="60" as="geometry" />
        </mxCell>
        <mxCell id="vHnxwdTPo78ipsx4aBbw-9" value="OrigenA" style="text;html=1;align=center;verticalAlign=middle;resizable=0;points=[];autosize=1;strokeColor=none;fillColor=none;" parent="WIyWlLk6GJQsqaUBKTNV-1" vertex="1">
          <mxGeometry x="15" y="590" width="70" height="30" as="geometry" />
        </mxCell>
        <mxCell id="vHnxwdTPo78ipsx4aBbw-10" value="" style="endArrow=classic;startArrow=classic;html=1;rounded=0;" parent="WIyWlLk6GJQsqaUBKTNV-1" edge="1">
          <mxGeometry width="50" height="50" relative="1" as="geometry">
            <mxPoint x="85" y="580" as="sourcePoint" />
            <mxPoint x="85" y="620" as="targetPoint" />
            <Array as="points">
              <mxPoint x="85" y="600" />
            </Array>
          </mxGeometry>
        </mxCell>
        <mxCell id="vHnxwdTPo78ipsx4aBbw-11" value="" style="endArrow=classic;startArrow=classic;html=1;rounded=0;" parent="WIyWlLk6GJQsqaUBKTNV-1" edge="1">
          <mxGeometry width="50" height="50" relative="1" as="geometry">
            <mxPoint x="104.5" y="580" as="sourcePoint" />
            <mxPoint x="104.5" y="620" as="targetPoint" />
            <Array as="points">
              <mxPoint x="104.5" y="600" />
            </Array>
          </mxGeometry>
        </mxCell>
        <mxCell id="vHnxwdTPo78ipsx4aBbw-12" value="" style="endArrow=classic;startArrow=classic;html=1;rounded=0;" parent="WIyWlLk6GJQsqaUBKTNV-1" edge="1">
          <mxGeometry width="50" height="50" relative="1" as="geometry">
            <mxPoint x="104.5" y="530" as="sourcePoint" />
            <mxPoint x="104.5" y="570" as="targetPoint" />
            <Array as="points">
              <mxPoint x="104.5" y="550" />
            </Array>
          </mxGeometry>
        </mxCell>
        <mxCell id="vHnxwdTPo78ipsx4aBbw-13" value="" style="endArrow=classic;startArrow=classic;html=1;rounded=0;" parent="WIyWlLk6GJQsqaUBKTNV-1" edge="1">
          <mxGeometry width="50" height="50" relative="1" as="geometry">
            <mxPoint x="85" y="530" as="sourcePoint" />
            <mxPoint x="85" y="570" as="targetPoint" />
            <Array as="points">
              <mxPoint x="85" y="550" />
            </Array>
          </mxGeometry>
        </mxCell>
        <mxCell id="vHnxwdTPo78ipsx4aBbw-14" value="OrigenB" style="text;html=1;align=center;verticalAlign=middle;resizable=0;points=[];autosize=1;strokeColor=none;fillColor=none;" parent="WIyWlLk6GJQsqaUBKTNV-1" vertex="1">
          <mxGeometry x="15" y="530" width="70" height="30" as="geometry" />
        </mxCell>
        <mxCell id="vHnxwdTPo78ipsx4aBbw-15" value="DestinoA" style="text;html=1;align=center;verticalAlign=middle;resizable=0;points=[];autosize=1;strokeColor=none;fillColor=none;" parent="WIyWlLk6GJQsqaUBKTNV-1" vertex="1">
          <mxGeometry x="105" y="590" width="70" height="30" as="geometry" />
        </mxCell>
        <mxCell id="vHnxwdTPo78ipsx4aBbw-16" value="DestinoB" style="text;html=1;align=center;verticalAlign=middle;resizable=0;points=[];autosize=1;strokeColor=none;fillColor=none;" parent="WIyWlLk6GJQsqaUBKTNV-1" vertex="1">
          <mxGeometry x="105" y="530" width="70" height="30" as="geometry" />
        </mxCell>
        <mxCell id="vHnxwdTPo78ipsx4aBbw-193" style="edgeStyle=orthogonalEdgeStyle;rounded=0;orthogonalLoop=1;jettySize=auto;html=1;entryX=1;entryY=0.5;entryDx=0;entryDy=0;" parent="WIyWlLk6GJQsqaUBKTNV-1" source="vHnxwdTPo78ipsx4aBbw-18" target="vHnxwdTPo78ipsx4aBbw-192" edge="1">
          <mxGeometry relative="1" as="geometry">
            <Array as="points">
              <mxPoint x="215" y="930" />
            </Array>
          </mxGeometry>
        </mxCell>
        <mxCell id="vHnxwdTPo78ipsx4aBbw-18" value="Movimiento Valido" style="whiteSpace=wrap;html=1;" parent="WIyWlLk6GJQsqaUBKTNV-1" vertex="1">
          <mxGeometry x="155" y="740" width="120" height="60" as="geometry" />
        </mxCell>
        <mxCell id="vHnxwdTPo78ipsx4aBbw-19" value="OrigenA" style="text;html=1;align=center;verticalAlign=middle;resizable=0;points=[];autosize=1;strokeColor=none;fillColor=none;" parent="WIyWlLk6GJQsqaUBKTNV-1" vertex="1">
          <mxGeometry x="155" y="700" width="70" height="30" as="geometry" />
        </mxCell>
        <mxCell id="vHnxwdTPo78ipsx4aBbw-22" value="OrigenB" style="text;html=1;align=center;verticalAlign=middle;resizable=0;points=[];autosize=1;strokeColor=none;fillColor=none;" parent="WIyWlLk6GJQsqaUBKTNV-1" vertex="1">
          <mxGeometry x="155" y="640" width="70" height="30" as="geometry" />
        </mxCell>
        <mxCell id="vHnxwdTPo78ipsx4aBbw-27" value="DestinoA" style="text;html=1;align=center;verticalAlign=middle;resizable=0;points=[];autosize=1;strokeColor=none;fillColor=none;" parent="WIyWlLk6GJQsqaUBKTNV-1" vertex="1">
          <mxGeometry x="245" y="700" width="70" height="30" as="geometry" />
        </mxCell>
        <mxCell id="vHnxwdTPo78ipsx4aBbw-28" value="DestinoB" style="text;html=1;align=center;verticalAlign=middle;resizable=0;points=[];autosize=1;strokeColor=none;fillColor=none;" parent="WIyWlLk6GJQsqaUBKTNV-1" vertex="1">
          <mxGeometry x="245" y="640" width="70" height="30" as="geometry" />
        </mxCell>
        <mxCell id="vHnxwdTPo78ipsx4aBbw-31" value="Equipo" style="text;html=1;align=center;verticalAlign=middle;resizable=0;points=[];autosize=1;strokeColor=none;fillColor=none;" parent="WIyWlLk6GJQsqaUBKTNV-1" vertex="1">
          <mxGeometry x="165" y="580" width="60" height="30" as="geometry" />
        </mxCell>
        <mxCell id="vHnxwdTPo78ipsx4aBbw-32" value="Adversario" style="text;html=1;align=center;verticalAlign=middle;resizable=0;points=[];autosize=1;strokeColor=none;fillColor=none;" parent="WIyWlLk6GJQsqaUBKTNV-1" vertex="1">
          <mxGeometry x="245" y="580" width="80" height="30" as="geometry" />
        </mxCell>
        <mxCell id="vHnxwdTPo78ipsx4aBbw-33" value="" style="endArrow=classic;html=1;rounded=0;" parent="WIyWlLk6GJQsqaUBKTNV-1" edge="1">
          <mxGeometry width="50" height="50" relative="1" as="geometry">
            <mxPoint x="245" y="690" as="sourcePoint" />
            <mxPoint x="245" y="730" as="targetPoint" />
          </mxGeometry>
        </mxCell>
        <mxCell id="vHnxwdTPo78ipsx4aBbw-34" value="" style="endArrow=classic;html=1;rounded=0;" parent="WIyWlLk6GJQsqaUBKTNV-1" edge="1">
          <mxGeometry width="50" height="50" relative="1" as="geometry">
            <mxPoint x="224" y="690" as="sourcePoint" />
            <mxPoint x="224" y="730" as="targetPoint" />
          </mxGeometry>
        </mxCell>
        <mxCell id="vHnxwdTPo78ipsx4aBbw-35" value="" style="endArrow=classic;html=1;rounded=0;" parent="WIyWlLk6GJQsqaUBKTNV-1" edge="1">
          <mxGeometry width="50" height="50" relative="1" as="geometry">
            <mxPoint x="245" y="635" as="sourcePoint" />
            <mxPoint x="245" y="675" as="targetPoint" />
          </mxGeometry>
        </mxCell>
        <mxCell id="vHnxwdTPo78ipsx4aBbw-36" value="" style="endArrow=classic;html=1;rounded=0;" parent="WIyWlLk6GJQsqaUBKTNV-1" edge="1">
          <mxGeometry width="50" height="50" relative="1" as="geometry">
            <mxPoint x="224" y="635" as="sourcePoint" />
            <mxPoint x="224" y="675" as="targetPoint" />
          </mxGeometry>
        </mxCell>
        <mxCell id="vHnxwdTPo78ipsx4aBbw-37" value="" style="endArrow=classic;html=1;rounded=0;" parent="WIyWlLk6GJQsqaUBKTNV-1" edge="1">
          <mxGeometry width="50" height="50" relative="1" as="geometry">
            <mxPoint x="244" y="580" as="sourcePoint" />
            <mxPoint x="244" y="620" as="targetPoint" />
          </mxGeometry>
        </mxCell>
        <mxCell id="vHnxwdTPo78ipsx4aBbw-38" value="" style="endArrow=classic;html=1;rounded=0;" parent="WIyWlLk6GJQsqaUBKTNV-1" edge="1">
          <mxGeometry width="50" height="50" relative="1" as="geometry">
            <mxPoint x="224" y="580" as="sourcePoint" />
            <mxPoint x="224" y="620" as="targetPoint" />
          </mxGeometry>
        </mxCell>
        <mxCell id="vHnxwdTPo78ipsx4aBbw-39" value="Movimiento Normal" style="whiteSpace=wrap;html=1;" parent="WIyWlLk6GJQsqaUBKTNV-1" vertex="1">
          <mxGeometry x="325" y="690" width="120" height="60" as="geometry" />
        </mxCell>
        <mxCell id="vHnxwdTPo78ipsx4aBbw-40" value="OrigenA" style="text;html=1;align=center;verticalAlign=middle;resizable=0;points=[];autosize=1;strokeColor=none;fillColor=none;" parent="WIyWlLk6GJQsqaUBKTNV-1" vertex="1">
          <mxGeometry x="325" y="650" width="70" height="30" as="geometry" />
        </mxCell>
        <mxCell id="vHnxwdTPo78ipsx4aBbw-41" value="OrigenB" style="text;html=1;align=center;verticalAlign=middle;resizable=0;points=[];autosize=1;strokeColor=none;fillColor=none;" parent="WIyWlLk6GJQsqaUBKTNV-1" vertex="1">
          <mxGeometry x="325" y="590" width="70" height="30" as="geometry" />
        </mxCell>
        <mxCell id="vHnxwdTPo78ipsx4aBbw-42" value="DestinoA" style="text;html=1;align=center;verticalAlign=middle;resizable=0;points=[];autosize=1;strokeColor=none;fillColor=none;" parent="WIyWlLk6GJQsqaUBKTNV-1" vertex="1">
          <mxGeometry x="415" y="650" width="70" height="30" as="geometry" />
        </mxCell>
        <mxCell id="vHnxwdTPo78ipsx4aBbw-43" value="DestinoB" style="text;html=1;align=center;verticalAlign=middle;resizable=0;points=[];autosize=1;strokeColor=none;fillColor=none;" parent="WIyWlLk6GJQsqaUBKTNV-1" vertex="1">
          <mxGeometry x="415" y="590" width="70" height="30" as="geometry" />
        </mxCell>
        <mxCell id="vHnxwdTPo78ipsx4aBbw-44" value="Equipo" style="text;html=1;align=center;verticalAlign=middle;resizable=0;points=[];autosize=1;strokeColor=none;fillColor=none;" parent="WIyWlLk6GJQsqaUBKTNV-1" vertex="1">
          <mxGeometry x="335" y="530" width="60" height="30" as="geometry" />
        </mxCell>
        <mxCell id="vHnxwdTPo78ipsx4aBbw-46" value="" style="endArrow=classic;html=1;rounded=0;" parent="WIyWlLk6GJQsqaUBKTNV-1" edge="1">
          <mxGeometry width="50" height="50" relative="1" as="geometry">
            <mxPoint x="415" y="640" as="sourcePoint" />
            <mxPoint x="415" y="680" as="targetPoint" />
          </mxGeometry>
        </mxCell>
        <mxCell id="vHnxwdTPo78ipsx4aBbw-47" value="" style="endArrow=classic;html=1;rounded=0;" parent="WIyWlLk6GJQsqaUBKTNV-1" edge="1">
          <mxGeometry width="50" height="50" relative="1" as="geometry">
            <mxPoint x="394" y="640" as="sourcePoint" />
            <mxPoint x="394" y="680" as="targetPoint" />
          </mxGeometry>
        </mxCell>
        <mxCell id="vHnxwdTPo78ipsx4aBbw-48" value="" style="endArrow=classic;html=1;rounded=0;" parent="WIyWlLk6GJQsqaUBKTNV-1" edge="1">
          <mxGeometry width="50" height="50" relative="1" as="geometry">
            <mxPoint x="415" y="585" as="sourcePoint" />
            <mxPoint x="415" y="625" as="targetPoint" />
          </mxGeometry>
        </mxCell>
        <mxCell id="vHnxwdTPo78ipsx4aBbw-49" value="" style="endArrow=classic;html=1;rounded=0;" parent="WIyWlLk6GJQsqaUBKTNV-1" edge="1">
          <mxGeometry width="50" height="50" relative="1" as="geometry">
            <mxPoint x="394" y="585" as="sourcePoint" />
            <mxPoint x="394" y="625" as="targetPoint" />
          </mxGeometry>
        </mxCell>
        <mxCell id="vHnxwdTPo78ipsx4aBbw-51" value="" style="endArrow=classic;html=1;rounded=0;" parent="WIyWlLk6GJQsqaUBKTNV-1" edge="1">
          <mxGeometry width="50" height="50" relative="1" as="geometry">
            <mxPoint x="394" y="530" as="sourcePoint" />
            <mxPoint x="394" y="570" as="targetPoint" />
          </mxGeometry>
        </mxCell>
        <mxCell id="vHnxwdTPo78ipsx4aBbw-54" value="Mat" style="text;html=1;align=center;verticalAlign=middle;resizable=0;points=[];autosize=1;strokeColor=none;fillColor=none;" parent="WIyWlLk6GJQsqaUBKTNV-1" vertex="1">
          <mxGeometry x="185" y="540" width="40" height="30" as="geometry" />
        </mxCell>
        <mxCell id="vHnxwdTPo78ipsx4aBbw-55" value="" style="endArrow=classic;startArrow=classic;html=1;rounded=0;" parent="WIyWlLk6GJQsqaUBKTNV-1" edge="1">
          <mxGeometry width="50" height="50" relative="1" as="geometry">
            <mxPoint x="414" y="530" as="sourcePoint" />
            <mxPoint x="414" y="570" as="targetPoint" />
            <Array as="points">
              <mxPoint x="414" y="550" />
            </Array>
          </mxGeometry>
        </mxCell>
        <mxCell id="vHnxwdTPo78ipsx4aBbw-56" value="Mat" style="text;html=1;align=center;verticalAlign=middle;resizable=0;points=[];autosize=1;strokeColor=none;fillColor=none;" parent="WIyWlLk6GJQsqaUBKTNV-1" vertex="1">
          <mxGeometry x="419" y="540" width="40" height="30" as="geometry" />
        </mxCell>
        <mxCell id="vHnxwdTPo78ipsx4aBbw-103" style="edgeStyle=orthogonalEdgeStyle;rounded=0;orthogonalLoop=1;jettySize=auto;html=1;" parent="WIyWlLk6GJQsqaUBKTNV-1" source="vHnxwdTPo78ipsx4aBbw-58" target="vHnxwdTPo78ipsx4aBbw-100" edge="1">
          <mxGeometry relative="1" as="geometry" />
        </mxCell>
        <mxCell id="vHnxwdTPo78ipsx4aBbw-58" value="Dibujar Matriz" style="whiteSpace=wrap;html=1;" parent="WIyWlLk6GJQsqaUBKTNV-1" vertex="1">
          <mxGeometry x="1175" y="455" width="120" height="60" as="geometry" />
        </mxCell>
        <mxCell id="vHnxwdTPo78ipsx4aBbw-63" value="Mat" style="text;html=1;align=center;verticalAlign=middle;resizable=0;points=[];autosize=1;strokeColor=none;fillColor=none;" parent="WIyWlLk6GJQsqaUBKTNV-1" vertex="1">
          <mxGeometry x="1115" y="470" width="40" height="30" as="geometry" />
        </mxCell>
        <mxCell id="vHnxwdTPo78ipsx4aBbw-64" value="Movimiento Con Captura" style="whiteSpace=wrap;html=1;" parent="WIyWlLk6GJQsqaUBKTNV-1" vertex="1">
          <mxGeometry x="645" y="680" width="120" height="60" as="geometry" />
        </mxCell>
        <mxCell id="vHnxwdTPo78ipsx4aBbw-65" value="OrigenA" style="text;html=1;align=center;verticalAlign=middle;resizable=0;points=[];autosize=1;strokeColor=none;fillColor=none;" parent="WIyWlLk6GJQsqaUBKTNV-1" vertex="1">
          <mxGeometry x="625" y="640" width="70" height="30" as="geometry" />
        </mxCell>
        <mxCell id="vHnxwdTPo78ipsx4aBbw-66" value="OrigenB" style="text;html=1;align=center;verticalAlign=middle;resizable=0;points=[];autosize=1;strokeColor=none;fillColor=none;" parent="WIyWlLk6GJQsqaUBKTNV-1" vertex="1">
          <mxGeometry x="625" y="580" width="70" height="30" as="geometry" />
        </mxCell>
        <mxCell id="vHnxwdTPo78ipsx4aBbw-67" value="DestinoA" style="text;html=1;align=center;verticalAlign=middle;resizable=0;points=[];autosize=1;strokeColor=none;fillColor=none;" parent="WIyWlLk6GJQsqaUBKTNV-1" vertex="1">
          <mxGeometry x="715" y="640" width="70" height="30" as="geometry" />
        </mxCell>
        <mxCell id="vHnxwdTPo78ipsx4aBbw-68" value="DestinoB" style="text;html=1;align=center;verticalAlign=middle;resizable=0;points=[];autosize=1;strokeColor=none;fillColor=none;" parent="WIyWlLk6GJQsqaUBKTNV-1" vertex="1">
          <mxGeometry x="715" y="580" width="70" height="30" as="geometry" />
        </mxCell>
        <mxCell id="vHnxwdTPo78ipsx4aBbw-69" value="Equipo" style="text;html=1;align=center;verticalAlign=middle;resizable=0;points=[];autosize=1;strokeColor=none;fillColor=none;" parent="WIyWlLk6GJQsqaUBKTNV-1" vertex="1">
          <mxGeometry x="635" y="520" width="60" height="30" as="geometry" />
        </mxCell>
        <mxCell id="vHnxwdTPo78ipsx4aBbw-70" value="" style="endArrow=classic;html=1;rounded=0;" parent="WIyWlLk6GJQsqaUBKTNV-1" edge="1">
          <mxGeometry width="50" height="50" relative="1" as="geometry">
            <mxPoint x="715" y="630" as="sourcePoint" />
            <mxPoint x="715" y="670" as="targetPoint" />
          </mxGeometry>
        </mxCell>
        <mxCell id="vHnxwdTPo78ipsx4aBbw-71" value="" style="endArrow=classic;html=1;rounded=0;" parent="WIyWlLk6GJQsqaUBKTNV-1" edge="1">
          <mxGeometry width="50" height="50" relative="1" as="geometry">
            <mxPoint x="694" y="630" as="sourcePoint" />
            <mxPoint x="694" y="670" as="targetPoint" />
          </mxGeometry>
        </mxCell>
        <mxCell id="vHnxwdTPo78ipsx4aBbw-72" value="" style="endArrow=classic;html=1;rounded=0;" parent="WIyWlLk6GJQsqaUBKTNV-1" edge="1">
          <mxGeometry width="50" height="50" relative="1" as="geometry">
            <mxPoint x="715" y="575" as="sourcePoint" />
            <mxPoint x="715" y="615" as="targetPoint" />
          </mxGeometry>
        </mxCell>
        <mxCell id="vHnxwdTPo78ipsx4aBbw-73" value="" style="endArrow=classic;html=1;rounded=0;" parent="WIyWlLk6GJQsqaUBKTNV-1" edge="1">
          <mxGeometry width="50" height="50" relative="1" as="geometry">
            <mxPoint x="694" y="575" as="sourcePoint" />
            <mxPoint x="694" y="615" as="targetPoint" />
          </mxGeometry>
        </mxCell>
        <mxCell id="vHnxwdTPo78ipsx4aBbw-74" value="" style="endArrow=classic;html=1;rounded=0;" parent="WIyWlLk6GJQsqaUBKTNV-1" edge="1">
          <mxGeometry width="50" height="50" relative="1" as="geometry">
            <mxPoint x="694" y="520" as="sourcePoint" />
            <mxPoint x="694" y="560" as="targetPoint" />
          </mxGeometry>
        </mxCell>
        <mxCell id="vHnxwdTPo78ipsx4aBbw-75" value="" style="endArrow=classic;startArrow=classic;html=1;rounded=0;" parent="WIyWlLk6GJQsqaUBKTNV-1" edge="1">
          <mxGeometry width="50" height="50" relative="1" as="geometry">
            <mxPoint x="714" y="520" as="sourcePoint" />
            <mxPoint x="714" y="560" as="targetPoint" />
            <Array as="points">
              <mxPoint x="714" y="540" />
            </Array>
          </mxGeometry>
        </mxCell>
        <mxCell id="vHnxwdTPo78ipsx4aBbw-76" value="Mat" style="text;html=1;align=center;verticalAlign=middle;resizable=0;points=[];autosize=1;strokeColor=none;fillColor=none;" parent="WIyWlLk6GJQsqaUBKTNV-1" vertex="1">
          <mxGeometry x="719" y="530" width="40" height="30" as="geometry" />
        </mxCell>
        <mxCell id="vHnxwdTPo78ipsx4aBbw-78" value="Hay Capturables" style="whiteSpace=wrap;html=1;" parent="WIyWlLk6GJQsqaUBKTNV-1" vertex="1">
          <mxGeometry x="490" y="660" width="120" height="60" as="geometry" />
        </mxCell>
        <mxCell id="vHnxwdTPo78ipsx4aBbw-80" value="Equipo" style="text;html=1;align=center;verticalAlign=middle;resizable=0;points=[];autosize=1;strokeColor=none;fillColor=none;" parent="WIyWlLk6GJQsqaUBKTNV-1" vertex="1">
          <mxGeometry x="480" y="585" width="60" height="30" as="geometry" />
        </mxCell>
        <mxCell id="vHnxwdTPo78ipsx4aBbw-81" value="Enemigo" style="text;html=1;align=center;verticalAlign=middle;resizable=0;points=[];autosize=1;strokeColor=none;fillColor=none;" parent="WIyWlLk6GJQsqaUBKTNV-1" vertex="1">
          <mxGeometry x="565" y="585" width="70" height="30" as="geometry" />
        </mxCell>
        <mxCell id="vHnxwdTPo78ipsx4aBbw-82" value="" style="endArrow=classic;html=1;rounded=0;" parent="WIyWlLk6GJQsqaUBKTNV-1" edge="1">
          <mxGeometry width="50" height="50" relative="1" as="geometry">
            <mxPoint x="559" y="585" as="sourcePoint" />
            <mxPoint x="559" y="625" as="targetPoint" />
          </mxGeometry>
        </mxCell>
        <mxCell id="vHnxwdTPo78ipsx4aBbw-83" value="" style="endArrow=classic;html=1;rounded=0;" parent="WIyWlLk6GJQsqaUBKTNV-1" edge="1">
          <mxGeometry width="50" height="50" relative="1" as="geometry">
            <mxPoint x="539" y="585" as="sourcePoint" />
            <mxPoint x="539" y="625" as="targetPoint" />
          </mxGeometry>
        </mxCell>
        <mxCell id="vHnxwdTPo78ipsx4aBbw-85" value="Mat" style="text;html=1;align=center;verticalAlign=middle;resizable=0;points=[];autosize=1;strokeColor=none;fillColor=none;" parent="WIyWlLk6GJQsqaUBKTNV-1" vertex="1">
          <mxGeometry x="495" y="535" width="40" height="30" as="geometry" />
        </mxCell>
        <mxCell id="vHnxwdTPo78ipsx4aBbw-86" value="" style="endArrow=classic;html=1;rounded=0;" parent="WIyWlLk6GJQsqaUBKTNV-1" edge="1">
          <mxGeometry width="50" height="50" relative="1" as="geometry">
            <mxPoint x="540" y="530" as="sourcePoint" />
            <mxPoint x="540" y="570" as="targetPoint" />
          </mxGeometry>
        </mxCell>
        <mxCell id="vHnxwdTPo78ipsx4aBbw-87" value="Traducir A-H" style="whiteSpace=wrap;html=1;" parent="WIyWlLk6GJQsqaUBKTNV-1" vertex="1">
          <mxGeometry x="-195" y="790" width="120" height="60" as="geometry" />
        </mxCell>
        <mxCell id="vHnxwdTPo78ipsx4aBbw-90" value="Traducir 1-8" style="whiteSpace=wrap;html=1;" parent="WIyWlLk6GJQsqaUBKTNV-1" vertex="1">
          <mxGeometry x="-55" y="790" width="120" height="60" as="geometry" />
        </mxCell>
        <mxCell id="vHnxwdTPo78ipsx4aBbw-92" value="" style="endArrow=classic;html=1;rounded=0;" parent="WIyWlLk6GJQsqaUBKTNV-1" edge="1">
          <mxGeometry width="50" height="50" relative="1" as="geometry">
            <mxPoint x="224" y="530" as="sourcePoint" />
            <mxPoint x="224" y="570" as="targetPoint" />
          </mxGeometry>
        </mxCell>
        <mxCell id="vHnxwdTPo78ipsx4aBbw-93" value="Caracter" style="text;html=1;align=center;verticalAlign=middle;resizable=0;points=[];autosize=1;strokeColor=none;fillColor=none;" parent="WIyWlLk6GJQsqaUBKTNV-1" vertex="1">
          <mxGeometry x="-135" y="710" width="70" height="30" as="geometry" />
        </mxCell>
        <mxCell id="vHnxwdTPo78ipsx4aBbw-95" value="" style="endArrow=classic;html=1;rounded=0;" parent="WIyWlLk6GJQsqaUBKTNV-1" edge="1">
          <mxGeometry width="50" height="50" relative="1" as="geometry">
            <mxPoint x="-135.5" y="710" as="sourcePoint" />
            <mxPoint x="-135.5" y="750" as="targetPoint" />
          </mxGeometry>
        </mxCell>
        <mxCell id="vHnxwdTPo78ipsx4aBbw-96" value="Caracter" style="text;html=1;align=center;verticalAlign=middle;resizable=0;points=[];autosize=1;strokeColor=none;fillColor=none;" parent="WIyWlLk6GJQsqaUBKTNV-1" vertex="1">
          <mxGeometry x="-35" y="730" width="70" height="30" as="geometry" />
        </mxCell>
        <mxCell id="vHnxwdTPo78ipsx4aBbw-97" value="" style="endArrow=classic;html=1;rounded=0;" parent="WIyWlLk6GJQsqaUBKTNV-1" edge="1">
          <mxGeometry width="50" height="50" relative="1" as="geometry">
            <mxPoint x="34" y="720" as="sourcePoint" />
            <mxPoint x="34" y="760" as="targetPoint" />
          </mxGeometry>
        </mxCell>
        <mxCell id="vHnxwdTPo78ipsx4aBbw-108" style="edgeStyle=orthogonalEdgeStyle;rounded=0;orthogonalLoop=1;jettySize=auto;html=1;" parent="WIyWlLk6GJQsqaUBKTNV-1" source="vHnxwdTPo78ipsx4aBbw-99" edge="1">
          <mxGeometry relative="1" as="geometry">
            <mxPoint x="1305" y="625" as="targetPoint" />
          </mxGeometry>
        </mxCell>
        <mxCell id="vHnxwdTPo78ipsx4aBbw-167" style="edgeStyle=orthogonalEdgeStyle;rounded=0;orthogonalLoop=1;jettySize=auto;html=1;entryX=1;entryY=0.5;entryDx=0;entryDy=0;" parent="WIyWlLk6GJQsqaUBKTNV-1" source="vHnxwdTPo78ipsx4aBbw-99" target="vHnxwdTPo78ipsx4aBbw-166" edge="1">
          <mxGeometry relative="1" as="geometry">
            <Array as="points">
              <mxPoint x="1475" y="760" />
            </Array>
          </mxGeometry>
        </mxCell>
        <mxCell id="vHnxwdTPo78ipsx4aBbw-99" value="Terminado" style="whiteSpace=wrap;html=1;" parent="WIyWlLk6GJQsqaUBKTNV-1" vertex="1">
          <mxGeometry x="1395" y="595" width="120" height="60" as="geometry" />
        </mxCell>
        <mxCell id="vHnxwdTPo78ipsx4aBbw-100" value="Cant Fichas En Tablero" style="whiteSpace=wrap;html=1;" parent="WIyWlLk6GJQsqaUBKTNV-1" vertex="1">
          <mxGeometry x="1175" y="600" width="120" height="60" as="geometry" />
        </mxCell>
        <mxCell id="vHnxwdTPo78ipsx4aBbw-104" value="Mat" style="text;html=1;align=center;verticalAlign=middle;resizable=0;points=[];autosize=1;strokeColor=none;fillColor=none;" parent="WIyWlLk6GJQsqaUBKTNV-1" vertex="1">
          <mxGeometry x="1185" y="550" width="40" height="30" as="geometry" />
        </mxCell>
        <mxCell id="vHnxwdTPo78ipsx4aBbw-106" value="Color" style="text;strokeColor=none;align=center;fillColor=none;html=1;verticalAlign=middle;whiteSpace=wrap;rounded=0;" parent="WIyWlLk6GJQsqaUBKTNV-1" vertex="1">
          <mxGeometry x="1255" y="555" width="30" height="20" as="geometry" />
        </mxCell>
        <mxCell id="vHnxwdTPo78ipsx4aBbw-113" value="Mat" style="text;html=1;align=center;verticalAlign=middle;resizable=0;points=[];autosize=1;strokeColor=none;fillColor=none;" parent="WIyWlLk6GJQsqaUBKTNV-1" vertex="1">
          <mxGeometry x="1330" y="635" width="40" height="30" as="geometry" />
        </mxCell>
        <mxCell id="vHnxwdTPo78ipsx4aBbw-115" value="Color" style="text;strokeColor=none;align=center;fillColor=none;html=1;verticalAlign=middle;whiteSpace=wrap;rounded=0;" parent="WIyWlLk6GJQsqaUBKTNV-1" vertex="1">
          <mxGeometry x="1335" y="590" width="30" height="20" as="geometry" />
        </mxCell>
        <mxCell id="vHnxwdTPo78ipsx4aBbw-117" value="" style="endArrow=classic;html=1;rounded=0;" parent="WIyWlLk6GJQsqaUBKTNV-1" edge="1">
          <mxGeometry width="50" height="50" relative="1" as="geometry">
            <mxPoint x="1225" y="545" as="sourcePoint" />
            <mxPoint x="1225" y="585" as="targetPoint" />
          </mxGeometry>
        </mxCell>
        <mxCell id="vHnxwdTPo78ipsx4aBbw-118" value="" style="endArrow=classic;html=1;rounded=0;" parent="WIyWlLk6GJQsqaUBKTNV-1" edge="1">
          <mxGeometry width="50" height="50" relative="1" as="geometry">
            <mxPoint x="1245" y="545" as="sourcePoint" />
            <mxPoint x="1245" y="585" as="targetPoint" />
          </mxGeometry>
        </mxCell>
        <mxCell id="vHnxwdTPo78ipsx4aBbw-119" value="" style="endArrow=classic;html=1;rounded=0;" parent="WIyWlLk6GJQsqaUBKTNV-1" edge="1">
          <mxGeometry width="50" height="50" relative="1" as="geometry">
            <mxPoint x="1115" y="470" as="sourcePoint" />
            <mxPoint x="1155" y="470" as="targetPoint" />
          </mxGeometry>
        </mxCell>
        <mxCell id="vHnxwdTPo78ipsx4aBbw-122" value="" style="endArrow=classic;html=1;rounded=0;" parent="WIyWlLk6GJQsqaUBKTNV-1" edge="1">
          <mxGeometry width="50" height="50" relative="1" as="geometry">
            <mxPoint x="1370" y="635" as="sourcePoint" />
            <mxPoint x="1330" y="636" as="targetPoint" />
          </mxGeometry>
        </mxCell>
        <mxCell id="vHnxwdTPo78ipsx4aBbw-123" value="" style="endArrow=classic;html=1;rounded=0;" parent="WIyWlLk6GJQsqaUBKTNV-1" edge="1">
          <mxGeometry width="50" height="50" relative="1" as="geometry">
            <mxPoint x="1370" y="615" as="sourcePoint" />
            <mxPoint x="1330" y="616" as="targetPoint" />
          </mxGeometry>
        </mxCell>
        <mxCell id="vHnxwdTPo78ipsx4aBbw-124" value="Mat" style="text;html=1;align=center;verticalAlign=middle;resizable=0;points=[];autosize=1;strokeColor=none;fillColor=none;" parent="WIyWlLk6GJQsqaUBKTNV-1" vertex="1">
          <mxGeometry x="1370" y="435" width="40" height="30" as="geometry" />
        </mxCell>
        <mxCell id="vHnxwdTPo78ipsx4aBbw-125" value="" style="endArrow=classic;html=1;rounded=0;" parent="WIyWlLk6GJQsqaUBKTNV-1" edge="1">
          <mxGeometry width="50" height="50" relative="1" as="geometry">
            <mxPoint x="1370" y="435" as="sourcePoint" />
            <mxPoint x="1410" y="435" as="targetPoint" />
          </mxGeometry>
        </mxCell>
        <mxCell id="vHnxwdTPo78ipsx4aBbw-126" value="" style="endArrow=classic;html=1;rounded=0;" parent="WIyWlLk6GJQsqaUBKTNV-1" edge="1">
          <mxGeometry width="50" height="50" relative="1" as="geometry">
            <mxPoint x="259" y="270" as="sourcePoint" />
            <mxPoint x="259" y="310" as="targetPoint" />
          </mxGeometry>
        </mxCell>
        <mxCell id="vHnxwdTPo78ipsx4aBbw-127" value="" style="endArrow=classic;html=1;rounded=0;" parent="WIyWlLk6GJQsqaUBKTNV-1" edge="1">
          <mxGeometry width="50" height="50" relative="1" as="geometry">
            <mxPoint x="260" y="325" as="sourcePoint" />
            <mxPoint x="260" y="365" as="targetPoint" />
          </mxGeometry>
        </mxCell>
        <mxCell id="vHnxwdTPo78ipsx4aBbw-129" value="Mat" style="text;html=1;align=center;verticalAlign=middle;resizable=0;points=[];autosize=1;strokeColor=none;fillColor=none;" parent="WIyWlLk6GJQsqaUBKTNV-1" vertex="1">
          <mxGeometry x="1115" y="645" width="40" height="30" as="geometry" />
        </mxCell>
        <mxCell id="vHnxwdTPo78ipsx4aBbw-130" value="Color" style="text;strokeColor=none;align=center;fillColor=none;html=1;verticalAlign=middle;whiteSpace=wrap;rounded=0;" parent="WIyWlLk6GJQsqaUBKTNV-1" vertex="1">
          <mxGeometry x="1120" y="595" width="30" height="20" as="geometry" />
        </mxCell>
        <mxCell id="vHnxwdTPo78ipsx4aBbw-133" value="" style="endArrow=classic;html=1;rounded=0;" parent="WIyWlLk6GJQsqaUBKTNV-1" edge="1">
          <mxGeometry width="50" height="50" relative="1" as="geometry">
            <mxPoint x="1115" y="619" as="sourcePoint" />
            <mxPoint x="1155" y="619" as="targetPoint" />
          </mxGeometry>
        </mxCell>
        <mxCell id="vHnxwdTPo78ipsx4aBbw-134" value="" style="endArrow=classic;html=1;rounded=0;" parent="WIyWlLk6GJQsqaUBKTNV-1" edge="1">
          <mxGeometry width="50" height="50" relative="1" as="geometry">
            <mxPoint x="1115" y="639" as="sourcePoint" />
            <mxPoint x="1155" y="639" as="targetPoint" />
          </mxGeometry>
        </mxCell>
        <mxCell id="vHnxwdTPo78ipsx4aBbw-135" value="Puede Capturar" style="whiteSpace=wrap;html=1;" parent="WIyWlLk6GJQsqaUBKTNV-1" vertex="1">
          <mxGeometry x="795" y="685" width="120" height="60" as="geometry" />
        </mxCell>
        <mxCell id="vHnxwdTPo78ipsx4aBbw-136" value="Equipo" style="text;html=1;align=center;verticalAlign=middle;resizable=0;points=[];autosize=1;strokeColor=none;fillColor=none;" parent="WIyWlLk6GJQsqaUBKTNV-1" vertex="1">
          <mxGeometry x="785" y="610" width="60" height="30" as="geometry" />
        </mxCell>
        <mxCell id="vHnxwdTPo78ipsx4aBbw-137" value="Enemigo" style="text;html=1;align=center;verticalAlign=middle;resizable=0;points=[];autosize=1;strokeColor=none;fillColor=none;" parent="WIyWlLk6GJQsqaUBKTNV-1" vertex="1">
          <mxGeometry x="865" y="610" width="70" height="30" as="geometry" />
        </mxCell>
        <mxCell id="vHnxwdTPo78ipsx4aBbw-138" value="" style="endArrow=classic;html=1;rounded=0;" parent="WIyWlLk6GJQsqaUBKTNV-1" edge="1">
          <mxGeometry width="50" height="50" relative="1" as="geometry">
            <mxPoint x="864" y="610" as="sourcePoint" />
            <mxPoint x="864" y="650" as="targetPoint" />
          </mxGeometry>
        </mxCell>
        <mxCell id="vHnxwdTPo78ipsx4aBbw-139" value="" style="endArrow=classic;html=1;rounded=0;" parent="WIyWlLk6GJQsqaUBKTNV-1" edge="1">
          <mxGeometry width="50" height="50" relative="1" as="geometry">
            <mxPoint x="844" y="610" as="sourcePoint" />
            <mxPoint x="844" y="650" as="targetPoint" />
          </mxGeometry>
        </mxCell>
        <mxCell id="vHnxwdTPo78ipsx4aBbw-140" value="Mat" style="text;html=1;align=center;verticalAlign=middle;resizable=0;points=[];autosize=1;strokeColor=none;fillColor=none;" parent="WIyWlLk6GJQsqaUBKTNV-1" vertex="1">
          <mxGeometry x="800" y="560" width="40" height="30" as="geometry" />
        </mxCell>
        <mxCell id="vHnxwdTPo78ipsx4aBbw-141" value="" style="endArrow=classic;html=1;rounded=0;" parent="WIyWlLk6GJQsqaUBKTNV-1" edge="1">
          <mxGeometry width="50" height="50" relative="1" as="geometry">
            <mxPoint x="845" y="555" as="sourcePoint" />
            <mxPoint x="845" y="595" as="targetPoint" />
          </mxGeometry>
        </mxCell>
        <mxCell id="vHnxwdTPo78ipsx4aBbw-143" value="" style="endArrow=classic;html=1;rounded=0;" parent="WIyWlLk6GJQsqaUBKTNV-1" edge="1">
          <mxGeometry width="50" height="50" relative="1" as="geometry">
            <mxPoint x="865" y="555" as="sourcePoint" />
            <mxPoint x="865" y="595" as="targetPoint" />
          </mxGeometry>
        </mxCell>
        <mxCell id="vHnxwdTPo78ipsx4aBbw-144" value="" style="endArrow=classic;html=1;rounded=0;" parent="WIyWlLk6GJQsqaUBKTNV-1" edge="1">
          <mxGeometry width="50" height="50" relative="1" as="geometry">
            <mxPoint x="865" y="505" as="sourcePoint" />
            <mxPoint x="865" y="545" as="targetPoint" />
          </mxGeometry>
        </mxCell>
        <mxCell id="vHnxwdTPo78ipsx4aBbw-145" value="OrigenFila" style="text;strokeColor=none;align=center;fillColor=none;html=1;verticalAlign=middle;whiteSpace=wrap;rounded=0;" parent="WIyWlLk6GJQsqaUBKTNV-1" vertex="1">
          <mxGeometry x="870" y="560" width="60" height="30" as="geometry" />
        </mxCell>
        <mxCell id="vHnxwdTPo78ipsx4aBbw-146" value="OrigenCol" style="text;strokeColor=none;align=center;fillColor=none;html=1;verticalAlign=middle;whiteSpace=wrap;rounded=0;" parent="WIyWlLk6GJQsqaUBKTNV-1" vertex="1">
          <mxGeometry x="870" y="505" width="60" height="30" as="geometry" />
        </mxCell>
        <mxCell id="vHnxwdTPo78ipsx4aBbw-203" style="edgeStyle=orthogonalEdgeStyle;rounded=0;orthogonalLoop=1;jettySize=auto;html=1;fillColor=#a20025;strokeColor=#FF0000;" parent="WIyWlLk6GJQsqaUBKTNV-1" source="vHnxwdTPo78ipsx4aBbw-148" target="vHnxwdTPo78ipsx4aBbw-192" edge="1">
          <mxGeometry relative="1" as="geometry">
            <Array as="points">
              <mxPoint x="1010" y="950" />
            </Array>
          </mxGeometry>
        </mxCell>
        <mxCell id="vHnxwdTPo78ipsx4aBbw-148" value="Pedir Destino" style="whiteSpace=wrap;html=1;" parent="WIyWlLk6GJQsqaUBKTNV-1" vertex="1">
          <mxGeometry x="950" y="595" width="120" height="60" as="geometry" />
        </mxCell>
        <mxCell id="vHnxwdTPo78ipsx4aBbw-149" value="DestinoFila" style="text;html=1;align=center;verticalAlign=middle;resizable=0;points=[];autosize=1;strokeColor=none;fillColor=none;" parent="WIyWlLk6GJQsqaUBKTNV-1" vertex="1">
          <mxGeometry x="925" y="545" width="80" height="30" as="geometry" />
        </mxCell>
        <mxCell id="vHnxwdTPo78ipsx4aBbw-150" value="" style="endArrow=classic;startArrow=classic;html=1;rounded=0;" parent="WIyWlLk6GJQsqaUBKTNV-1" edge="1">
          <mxGeometry width="50" height="50" relative="1" as="geometry">
            <mxPoint x="1000" y="535" as="sourcePoint" />
            <mxPoint x="1000" y="575" as="targetPoint" />
            <Array as="points">
              <mxPoint x="1000" y="555" />
            </Array>
          </mxGeometry>
        </mxCell>
        <mxCell id="vHnxwdTPo78ipsx4aBbw-151" value="" style="endArrow=classic;startArrow=classic;html=1;rounded=0;" parent="WIyWlLk6GJQsqaUBKTNV-1" edge="1">
          <mxGeometry width="50" height="50" relative="1" as="geometry">
            <mxPoint x="1019.5" y="535" as="sourcePoint" />
            <mxPoint x="1019.5" y="575" as="targetPoint" />
            <Array as="points">
              <mxPoint x="1019.5" y="555" />
            </Array>
          </mxGeometry>
        </mxCell>
        <mxCell id="vHnxwdTPo78ipsx4aBbw-155" value="DestinoCol" style="text;html=1;align=center;verticalAlign=middle;resizable=0;points=[];autosize=1;strokeColor=none;fillColor=none;" parent="WIyWlLk6GJQsqaUBKTNV-1" vertex="1">
          <mxGeometry x="1015" y="545" width="80" height="30" as="geometry" />
        </mxCell>
        <mxCell id="vHnxwdTPo78ipsx4aBbw-174" style="edgeStyle=orthogonalEdgeStyle;rounded=0;orthogonalLoop=1;jettySize=auto;html=1;" parent="WIyWlLk6GJQsqaUBKTNV-1" source="vHnxwdTPo78ipsx4aBbw-166" target="vHnxwdTPo78ipsx4aBbw-18" edge="1">
          <mxGeometry relative="1" as="geometry">
            <mxPoint x="225" y="799" as="targetPoint" />
            <Array as="points">
              <mxPoint x="1235" y="820" />
              <mxPoint x="225" y="820" />
            </Array>
          </mxGeometry>
        </mxCell>
        <mxCell id="vHnxwdTPo78ipsx4aBbw-166" value="Hay Movimientos Disp" style="whiteSpace=wrap;html=1;" parent="WIyWlLk6GJQsqaUBKTNV-1" vertex="1">
          <mxGeometry x="1175" y="730" width="120" height="60" as="geometry" />
        </mxCell>
        <mxCell id="vHnxwdTPo78ipsx4aBbw-168" value="Mat" style="text;html=1;align=center;verticalAlign=middle;resizable=0;points=[];autosize=1;strokeColor=none;fillColor=none;" parent="WIyWlLk6GJQsqaUBKTNV-1" vertex="1">
          <mxGeometry x="1330" y="770" width="40" height="30" as="geometry" />
        </mxCell>
        <mxCell id="vHnxwdTPo78ipsx4aBbw-169" value="Equipo" style="text;strokeColor=none;align=center;fillColor=none;html=1;verticalAlign=middle;whiteSpace=wrap;rounded=0;" parent="WIyWlLk6GJQsqaUBKTNV-1" vertex="1">
          <mxGeometry x="1335" y="725" width="30" height="20" as="geometry" />
        </mxCell>
        <mxCell id="vHnxwdTPo78ipsx4aBbw-170" value="" style="endArrow=classic;html=1;rounded=0;" parent="WIyWlLk6GJQsqaUBKTNV-1" edge="1">
          <mxGeometry width="50" height="50" relative="1" as="geometry">
            <mxPoint x="1370" y="770" as="sourcePoint" />
            <mxPoint x="1330" y="771" as="targetPoint" />
          </mxGeometry>
        </mxCell>
        <mxCell id="vHnxwdTPo78ipsx4aBbw-171" value="" style="endArrow=classic;html=1;rounded=0;" parent="WIyWlLk6GJQsqaUBKTNV-1" edge="1">
          <mxGeometry width="50" height="50" relative="1" as="geometry">
            <mxPoint x="1370" y="750" as="sourcePoint" />
            <mxPoint x="1330" y="751" as="targetPoint" />
          </mxGeometry>
        </mxCell>
        <mxCell id="vHnxwdTPo78ipsx4aBbw-172" value="" style="endArrow=classic;html=1;rounded=0;" parent="WIyWlLk6GJQsqaUBKTNV-1" edge="1">
          <mxGeometry width="50" height="50" relative="1" as="geometry">
            <mxPoint x="1435" y="769" as="sourcePoint" />
            <mxPoint x="1395" y="770" as="targetPoint" />
          </mxGeometry>
        </mxCell>
        <mxCell id="vHnxwdTPo78ipsx4aBbw-173" value="Enemigo" style="text;strokeColor=none;align=center;fillColor=none;html=1;verticalAlign=middle;whiteSpace=wrap;rounded=0;" parent="WIyWlLk6GJQsqaUBKTNV-1" vertex="1">
          <mxGeometry x="1385" y="770" width="60" height="30" as="geometry" />
        </mxCell>
        <mxCell id="vHnxwdTPo78ipsx4aBbw-175" value="DestinoA" style="text;html=1;align=center;verticalAlign=middle;resizable=0;points=[];autosize=1;strokeColor=none;fillColor=none;" parent="WIyWlLk6GJQsqaUBKTNV-1" vertex="1">
          <mxGeometry x="245" y="700" width="70" height="30" as="geometry" />
        </mxCell>
        <mxCell id="vHnxwdTPo78ipsx4aBbw-176" value="DestinoB" style="text;html=1;align=center;verticalAlign=middle;resizable=0;points=[];autosize=1;strokeColor=none;fillColor=none;" parent="WIyWlLk6GJQsqaUBKTNV-1" vertex="1">
          <mxGeometry x="245" y="640" width="70" height="30" as="geometry" />
        </mxCell>
        <mxCell id="vHnxwdTPo78ipsx4aBbw-177" value="Adversario" style="text;html=1;align=center;verticalAlign=middle;resizable=0;points=[];autosize=1;strokeColor=none;fillColor=none;" parent="WIyWlLk6GJQsqaUBKTNV-1" vertex="1">
          <mxGeometry x="245" y="580" width="80" height="30" as="geometry" />
        </mxCell>
        <mxCell id="vHnxwdTPo78ipsx4aBbw-178" value="OrigenA" style="text;html=1;align=center;verticalAlign=middle;resizable=0;points=[];autosize=1;strokeColor=none;fillColor=none;" parent="WIyWlLk6GJQsqaUBKTNV-1" vertex="1">
          <mxGeometry x="1100" y="840" width="70" height="30" as="geometry" />
        </mxCell>
        <mxCell id="vHnxwdTPo78ipsx4aBbw-179" value="OrigenB" style="text;html=1;align=center;verticalAlign=middle;resizable=0;points=[];autosize=1;strokeColor=none;fillColor=none;" parent="WIyWlLk6GJQsqaUBKTNV-1" vertex="1">
          <mxGeometry x="1005" y="840" width="70" height="30" as="geometry" />
        </mxCell>
        <mxCell id="vHnxwdTPo78ipsx4aBbw-180" value="Equipo" style="text;html=1;align=center;verticalAlign=middle;resizable=0;points=[];autosize=1;strokeColor=none;fillColor=none;" parent="WIyWlLk6GJQsqaUBKTNV-1" vertex="1">
          <mxGeometry x="910" y="840" width="60" height="30" as="geometry" />
        </mxCell>
        <mxCell id="vHnxwdTPo78ipsx4aBbw-181" value="Mat" style="text;html=1;align=center;verticalAlign=middle;resizable=0;points=[];autosize=1;strokeColor=none;fillColor=none;" parent="WIyWlLk6GJQsqaUBKTNV-1" vertex="1">
          <mxGeometry x="855" y="780" width="40" height="30" as="geometry" />
        </mxCell>
        <mxCell id="vHnxwdTPo78ipsx4aBbw-182" value="DestinoA" style="text;html=1;align=center;verticalAlign=middle;resizable=0;points=[];autosize=1;strokeColor=none;fillColor=none;" parent="WIyWlLk6GJQsqaUBKTNV-1" vertex="1">
          <mxGeometry x="1100" y="780" width="70" height="30" as="geometry" />
        </mxCell>
        <mxCell id="vHnxwdTPo78ipsx4aBbw-183" value="DestinoB" style="text;html=1;align=center;verticalAlign=middle;resizable=0;points=[];autosize=1;strokeColor=none;fillColor=none;" parent="WIyWlLk6GJQsqaUBKTNV-1" vertex="1">
          <mxGeometry x="1005" y="780" width="70" height="30" as="geometry" />
        </mxCell>
        <mxCell id="vHnxwdTPo78ipsx4aBbw-184" value="Adversario" style="text;html=1;align=center;verticalAlign=middle;resizable=0;points=[];autosize=1;strokeColor=none;fillColor=none;" parent="WIyWlLk6GJQsqaUBKTNV-1" vertex="1">
          <mxGeometry x="900" y="780" width="80" height="30" as="geometry" />
        </mxCell>
        <mxCell id="vHnxwdTPo78ipsx4aBbw-185" value="" style="endArrow=classic;html=1;rounded=0;" parent="WIyWlLk6GJQsqaUBKTNV-1" edge="1">
          <mxGeometry width="50" height="50" relative="1" as="geometry">
            <mxPoint x="1155" y="830" as="sourcePoint" />
            <mxPoint x="1115" y="831" as="targetPoint" />
          </mxGeometry>
        </mxCell>
        <mxCell id="vHnxwdTPo78ipsx4aBbw-186" value="" style="endArrow=classic;html=1;rounded=0;" parent="WIyWlLk6GJQsqaUBKTNV-1" edge="1">
          <mxGeometry width="50" height="50" relative="1" as="geometry">
            <mxPoint x="1155" y="810" as="sourcePoint" />
            <mxPoint x="1115" y="811" as="targetPoint" />
          </mxGeometry>
        </mxCell>
        <mxCell id="vHnxwdTPo78ipsx4aBbw-187" value="" style="endArrow=classic;html=1;rounded=0;" parent="WIyWlLk6GJQsqaUBKTNV-1" edge="1">
          <mxGeometry width="50" height="50" relative="1" as="geometry">
            <mxPoint x="1060" y="810" as="sourcePoint" />
            <mxPoint x="1020" y="811" as="targetPoint" />
          </mxGeometry>
        </mxCell>
        <mxCell id="vHnxwdTPo78ipsx4aBbw-188" value="" style="endArrow=classic;html=1;rounded=0;" parent="WIyWlLk6GJQsqaUBKTNV-1" edge="1">
          <mxGeometry width="50" height="50" relative="1" as="geometry">
            <mxPoint x="1060" y="830" as="sourcePoint" />
            <mxPoint x="1020" y="831" as="targetPoint" />
          </mxGeometry>
        </mxCell>
        <mxCell id="vHnxwdTPo78ipsx4aBbw-189" value="" style="endArrow=classic;html=1;rounded=0;" parent="WIyWlLk6GJQsqaUBKTNV-1" edge="1">
          <mxGeometry width="50" height="50" relative="1" as="geometry">
            <mxPoint x="960" y="830" as="sourcePoint" />
            <mxPoint x="920" y="831" as="targetPoint" />
          </mxGeometry>
        </mxCell>
        <mxCell id="vHnxwdTPo78ipsx4aBbw-190" value="" style="endArrow=classic;html=1;rounded=0;" parent="WIyWlLk6GJQsqaUBKTNV-1" edge="1">
          <mxGeometry width="50" height="50" relative="1" as="geometry">
            <mxPoint x="960" y="810" as="sourcePoint" />
            <mxPoint x="920" y="811" as="targetPoint" />
          </mxGeometry>
        </mxCell>
        <mxCell id="vHnxwdTPo78ipsx4aBbw-191" value="" style="endArrow=classic;html=1;rounded=0;" parent="WIyWlLk6GJQsqaUBKTNV-1" edge="1">
          <mxGeometry width="50" height="50" relative="1" as="geometry">
            <mxPoint x="895" y="810" as="sourcePoint" />
            <mxPoint x="855" y="811" as="targetPoint" />
          </mxGeometry>
        </mxCell>
        <mxCell id="vHnxwdTPo78ipsx4aBbw-192" value="Esta en Tablero" style="whiteSpace=wrap;html=1;" parent="WIyWlLk6GJQsqaUBKTNV-1" vertex="1">
          <mxGeometry x="85" y="900" width="120" height="60" as="geometry" />
        </mxCell>
        <mxCell id="vHnxwdTPo78ipsx4aBbw-195" value="A" style="text;strokeColor=none;align=center;fillColor=none;html=1;verticalAlign=middle;whiteSpace=wrap;rounded=0;" parent="WIyWlLk6GJQsqaUBKTNV-1" vertex="1">
          <mxGeometry x="215" y="860" width="60" height="30" as="geometry" />
        </mxCell>
        <mxCell id="vHnxwdTPo78ipsx4aBbw-196" value="B" style="text;strokeColor=none;align=center;fillColor=none;html=1;verticalAlign=middle;whiteSpace=wrap;rounded=0;" parent="WIyWlLk6GJQsqaUBKTNV-1" vertex="1">
          <mxGeometry x="160" y="860" width="60" height="30" as="geometry" />
        </mxCell>
        <mxCell id="vHnxwdTPo78ipsx4aBbw-197" value="" style="endArrow=classic;html=1;rounded=0;" parent="WIyWlLk6GJQsqaUBKTNV-1" edge="1">
          <mxGeometry width="50" height="50" relative="1" as="geometry">
            <mxPoint x="225" y="850" as="sourcePoint" />
            <mxPoint x="225" y="890" as="targetPoint" />
          </mxGeometry>
        </mxCell>
        <mxCell id="vHnxwdTPo78ipsx4aBbw-198" value="" style="endArrow=classic;html=1;rounded=0;" parent="WIyWlLk6GJQsqaUBKTNV-1" edge="1">
          <mxGeometry width="50" height="50" relative="1" as="geometry">
            <mxPoint x="204" y="850" as="sourcePoint" />
            <mxPoint x="204" y="890" as="targetPoint" />
          </mxGeometry>
        </mxCell>
        <mxCell id="vHnxwdTPo78ipsx4aBbw-199" value="A" style="text;strokeColor=none;align=center;fillColor=none;html=1;verticalAlign=middle;whiteSpace=wrap;rounded=0;" parent="WIyWlLk6GJQsqaUBKTNV-1" vertex="1">
          <mxGeometry x="115" y="850" width="60" height="30" as="geometry" />
        </mxCell>
        <mxCell id="vHnxwdTPo78ipsx4aBbw-200" value="B" style="text;strokeColor=none;align=center;fillColor=none;html=1;verticalAlign=middle;whiteSpace=wrap;rounded=0;" parent="WIyWlLk6GJQsqaUBKTNV-1" vertex="1">
          <mxGeometry x="60" y="850" width="60" height="30" as="geometry" />
        </mxCell>
        <mxCell id="vHnxwdTPo78ipsx4aBbw-201" value="" style="endArrow=classic;html=1;rounded=0;" parent="WIyWlLk6GJQsqaUBKTNV-1" edge="1">
          <mxGeometry width="50" height="50" relative="1" as="geometry">
            <mxPoint x="125" y="840" as="sourcePoint" />
            <mxPoint x="125" y="880" as="targetPoint" />
          </mxGeometry>
        </mxCell>
        <mxCell id="vHnxwdTPo78ipsx4aBbw-202" value="" style="endArrow=classic;html=1;rounded=0;" parent="WIyWlLk6GJQsqaUBKTNV-1" edge="1">
          <mxGeometry width="50" height="50" relative="1" as="geometry">
            <mxPoint x="104" y="840" as="sourcePoint" />
            <mxPoint x="104" y="880" as="targetPoint" />
          </mxGeometry>
        </mxCell>
        <mxCell id="vHnxwdTPo78ipsx4aBbw-204" value="" style="endArrow=classic;html=1;rounded=0;" parent="WIyWlLk6GJQsqaUBKTNV-1" edge="1">
          <mxGeometry width="50" height="50" relative="1" as="geometry">
            <mxPoint x="300" y="940" as="sourcePoint" />
            <mxPoint x="260" y="941" as="targetPoint" />
          </mxGeometry>
        </mxCell>
        <mxCell id="vHnxwdTPo78ipsx4aBbw-205" value="" style="endArrow=classic;html=1;rounded=0;" parent="WIyWlLk6GJQsqaUBKTNV-1" edge="1">
          <mxGeometry width="50" height="50" relative="1" as="geometry">
            <mxPoint x="300" y="960" as="sourcePoint" />
            <mxPoint x="260" y="961" as="targetPoint" />
          </mxGeometry>
        </mxCell>
        <mxCell id="vHnxwdTPo78ipsx4aBbw-206" value="A" style="text;strokeColor=none;align=center;fillColor=none;html=1;verticalAlign=middle;whiteSpace=wrap;rounded=0;" parent="WIyWlLk6GJQsqaUBKTNV-1" vertex="1">
          <mxGeometry x="250" y="960" width="60" height="30" as="geometry" />
        </mxCell>
        <mxCell id="vHnxwdTPo78ipsx4aBbw-207" value="B" style="text;strokeColor=none;align=center;fillColor=none;html=1;verticalAlign=middle;whiteSpace=wrap;rounded=0;" parent="WIyWlLk6GJQsqaUBKTNV-1" vertex="1">
          <mxGeometry x="250" y="910" width="60" height="30" as="geometry" />
        </mxCell>
        <mxCell id="vHnxwdTPo78ipsx4aBbw-218" value="Se repite" style="text;strokeColor=none;align=center;fillColor=none;html=1;verticalAlign=middle;whiteSpace=wrap;rounded=0;" parent="WIyWlLk6GJQsqaUBKTNV-1" vertex="1">
          <mxGeometry x="365" y="425" width="60" height="30" as="geometry" />
        </mxCell>
        <mxCell id="vHnxwdTPo78ipsx4aBbw-219" value="Segundo" style="text;strokeColor=none;align=center;fillColor=none;html=1;verticalAlign=middle;whiteSpace=wrap;rounded=0;" parent="WIyWlLk6GJQsqaUBKTNV-1" vertex="1">
          <mxGeometry x="479" y="435" width="60" height="30" as="geometry" />
        </mxCell>
        <mxCell id="vHnxwdTPo78ipsx4aBbw-220" value="Primero" style="text;strokeColor=none;align=center;fillColor=none;html=1;verticalAlign=middle;whiteSpace=wrap;rounded=0;" parent="WIyWlLk6GJQsqaUBKTNV-1" vertex="1">
          <mxGeometry x="479" y="395" width="60" height="30" as="geometry" />
        </mxCell>
        <mxCell id="AsWCCILCUZCFk3h2-ywY-0" value="Hecho por Manuel Torres" style="text;strokeColor=none;align=center;fillColor=none;html=1;verticalAlign=middle;whiteSpace=wrap;rounded=0;fontSize=24;" parent="WIyWlLk6GJQsqaUBKTNV-1" vertex="1">
          <mxGeometry x="-195" width="170" height="60" as="geometry" />
        </mxCell>
        <mxCell id="D3IPwqvcWMvaMyJVCony-0" value="Fondo negro" style="whiteSpace=wrap;html=1;" vertex="1" parent="WIyWlLk6GJQsqaUBKTNV-1">
          <mxGeometry x="-55" y="445" width="75" height="60" as="geometry" />
        </mxCell>
        <mxCell id="D3IPwqvcWMvaMyJVCony-2" value="" style="endArrow=classic;html=1;rounded=0;" edge="1" parent="WIyWlLk6GJQsqaUBKTNV-1">
          <mxGeometry width="50" height="50" relative="1" as="geometry">
            <mxPoint x="85" y="464" as="sourcePoint" />
            <mxPoint x="45" y="465" as="targetPoint" />
          </mxGeometry>
        </mxCell>
        <mxCell id="D3IPwqvcWMvaMyJVCony-3" value="" style="endArrow=classic;html=1;rounded=0;" edge="1" parent="WIyWlLk6GJQsqaUBKTNV-1">
          <mxGeometry width="50" height="50" relative="1" as="geometry">
            <mxPoint x="85" y="474.5" as="sourcePoint" />
            <mxPoint x="45" y="475.5" as="targetPoint" />
          </mxGeometry>
        </mxCell>
        <mxCell id="D3IPwqvcWMvaMyJVCony-4" value="Fila" style="text;strokeColor=none;align=center;fillColor=none;html=1;verticalAlign=middle;whiteSpace=wrap;rounded=0;" vertex="1" parent="WIyWlLk6GJQsqaUBKTNV-1">
          <mxGeometry x="35" y="475" width="60" height="30" as="geometry" />
        </mxCell>
        <mxCell id="D3IPwqvcWMvaMyJVCony-5" value="Col" style="text;strokeColor=none;align=center;fillColor=none;html=1;verticalAlign=middle;whiteSpace=wrap;rounded=0;" vertex="1" parent="WIyWlLk6GJQsqaUBKTNV-1">
          <mxGeometry x="35" y="440" width="60" height="30" as="geometry" />
        </mxCell>
      </root>
    </mxGraphModel>
  </diagram>
</mxfile>
